<svg version="1.1" id="man" xmlns="http://www.w3.org/2000/svg" xmlns:xlink="http://www.w3.org/1999/xlink" x="0px" y="0px"
	 viewBox="0 0 79 80.3" style="enable-background:new 0 0 79 80.3;" xml:space="preserve">
<style type="text/css">
	.st0{fill:#ECE7E3;}
	.st1{fill:#D9836C;}
	.st2{fill:#FFFFFF;}
	.st3{fill:#F5F0EB;}
	.st4{fill:#F6AF95;}
	.st5{fill:#DE876C;}
	.st6{fill:#0C0D0D;}
	.st7{fill:#5D8696;}
	.st8{fill:#242422;}
	.st9{fill:#F0AA90;}
	.st10{opacity:0.4;fill:#EAEDEE;}
	.st11{fill:#5C311E;}
	.st12{fill:#D5523B;}
</style>
<path class="st0" d="M23.9,52.4c0,0,17.1-3.2,33.4-0.4c0,0-3.6,31.1-4.9,37.7c0,0-12.9,3.2-24-0.2C28.4,89.5,23.7,58.4,23.9,52.4z"
	/>
<path class="st1" d="M45.4,50.4c0,2.9-2.2,5.2-5,5.2l0,0c-2.8,0-5-2.3-5-5.2v-6.6c0-2.9,2.2-5.2,5-5.2l0,0c2.8,0,5,2.3,5,5.2V50.4z"
	/>
<g>
	<path class="st2" d="M41,59.7c0,0.4-0.3,0.7-0.7,0.7c-0.4,0-0.7-0.3-0.7-0.7c0-0.4,0.3-0.7,0.7-0.7C40.7,58.9,41,59.3,41,59.7z"/>
	<path class="st2" d="M41,67.4c0,0.4-0.3,0.7-0.7,0.7c-0.4,0-0.7-0.3-0.7-0.7c0-0.4,0.3-0.7,0.7-0.7C40.7,66.6,41,67,41,67.4z"/>
	<path class="st2" d="M41,82.7c0,0.4-0.3,0.7-0.7,0.7c-0.4,0-0.7-0.3-0.7-0.7c0-0.4,0.3-0.7,0.7-0.7C40.6,82,41,82.3,41,82.7z"/>
	<path class="st2" d="M41,75c0,0.4-0.3,0.7-0.7,0.7c-0.4,0-0.7-0.3-0.7-0.7c0-0.4,0.3-0.7,0.7-0.7C40.7,74.3,41,74.6,41,75z"/>
</g>
<g>
	<path class="st3" d="M35.1,47.3L31,51.5l3.4,9l5.8-4.9C40.2,55.6,35.7,50.9,35.1,47.3z"/>
	<path class="st3" d="M45.4,47.3l4.1,4.3l-3.4,9l-5.8-4.9C40.2,55.6,44.7,50.9,45.4,47.3z"/>
</g>
<g>
	<path class="st4" d="M52.1,35.9c0,4.1-4.3,7.4-7.2,8.9c-2.9,1.5-5.4,1-5.4,1C28,43.3,28.8,37.9,28.1,33.3
		c-0.3-2.2-0.6-6.4,0.4-11.5c0.1-0.7,0.3-1.3,0.6-1.9c1.8-3.7,6-5.1,6-5.1c2.5-0.9,5.4-1.1,8-0.6c3.8,0.7,6.7,2.6,7.7,6.5
		c0.3,1.2,0.5,2.5,0.6,3.8c0.3,2.6,0.5,5.2,0.6,7.9C52,33.5,52.1,34.7,52.1,35.9z"/>
</g>
<path class="st5" d="M40,24.6c0,0-0.9-0.8-0.8,2.2c0,3,0.4,6.1,0.4,6.1s-2.1-1-1.3,0.6c0.4,0.9,1.3,1.3,2.2,1.4
	c0.8,0.2,1.3-0.1,1.8-0.7c0.2-0.2,1.4-1.6,0.9-1.9c-0.2-0.2-1.2,0.3-1.5,0.4C41.7,32.7,41.5,23.8,40,24.6z"/>
<path class="st6" d="M43.5,22.5c0,0,5.2-1,6.8,2.8c0,0-5.8-1.7-6.9-0.9L43.5,22.5z"/>
<path class="st6" d="M37.2,22.9c0,0-5.1-1.4-7,2.3c0,0,5.9-1.4,7-0.4L37.2,22.9z"/>
<g id="left_x5F_eye">
	<path class="st2" d="M31.4,29c0.1,1.5,1.5,2.6,3.2,2.5c1.7-0.1,2.9-1.4,2.8-2.9c-0.1-1.5-1.5-2.6-3.2-2.5
		C32.6,26.2,31.3,27.5,31.4,29z"/>
	<g id="eye_x5F_l">
		<path class="st7" d="M36.4,28.5c0.1,1.3-0.7,2.5-1.7,2.5c-1,0.1-1.9-0.9-2-2.3c-0.1-1.3,0.7-2.5,1.7-2.5
			C35.4,26.2,36.3,27.2,36.4,28.5z"/>
		<path class="st6" d="M35.9,28.6c0.1,0.9-0.5,1.7-1.2,1.8c-0.7,0-1.4-0.7-1.4-1.6c-0.1-0.9,0.5-1.7,1.2-1.8
			C35.2,26.9,35.8,27.6,35.9,28.6z"/>
		<path class="st2" d="M35.9,26.9c0,0.3-0.3,0.5-0.7,0.5c-0.4,0-0.7-0.2-0.7-0.4c0-0.3,0.3-0.5,0.7-0.5
			C35.5,26.5,35.9,26.7,35.9,26.9z"/>
	</g>
</g>
<g id="right_x5F_eye">
	<path class="st2" d="M43.4,28.6c0.1,1.5,1.5,2.6,3.2,2.5c1.7-0.1,2.9-1.4,2.8-2.9c-0.1-1.5-1.5-2.7-3.2-2.5
		C44.6,25.8,43.3,27.1,43.4,28.6z"/>
	<g id="eye_x5F_r">
		<path class="st7" d="M48,28.2c0.1,1.3-0.7,2.5-1.7,2.5c-1,0.1-1.9-0.9-2-2.3c-0.1-1.3,0.7-2.5,1.7-2.5C47,25.9,47.9,26.9,48,28.2z
			"/>
		<path class="st6" d="M47.4,28.3c0.1,0.9-0.5,1.7-1.2,1.8c-0.7,0-1.4-0.7-1.4-1.6c-0.1-0.9,0.5-1.7,1.2-1.8
			C46.7,26.6,47.4,27.3,47.4,28.3z"/>
		<path class="st2" d="M47.4,26.6c0,0.3-0.3,0.5-0.7,0.5c-0.4,0-0.7-0.2-0.7-0.4c0-0.3,0.3-0.5,0.7-0.5
			C47.1,26.2,47.4,26.4,47.4,26.6z"/>
	</g>
</g>
<path class="st8" d="M55.8,12.3c-0.7,0.9-1.8,1.9-3,2.1c1-1,1.9-2.4,1.8-3.9c0-0.1-0.1-0.1-0.1-0.1c-0.2,0.1-0.4,0.3-0.5,0.4
	c-0.9,0.8-2.4,0.8-3.4,0.4c-1.9-0.7-3.4-2-5.1-3c-1.8-1.1-3.9-1.8-6.1-1.7c-1.2,0-2.3,0.3-3.4,0.7c-2.7,1-5.9,2.9-6.6,5.9
	c-0.1,0.4-0.1,0.8-0.1,1.3c0,0.3,0.2,1.1,0.1,1.3c-0.1,0.1,0.1,0.2,0.1,0.2c0,0,0.1,0,0.1-0.1c0-0.1,0-0.1,0-0.1
	c1.3-1,3.4,3,4.2,3.6c3,2.5,7.2,2.8,10.7,1.9c3.9-1.1,8.3-3.8,10.6-7.1c0.4-0.5,0.7-1.1,1-1.7C56.1,12.3,55.9,12.2,55.8,12.3z"/>
<g>
	<g>
		<path class="st9" d="M51.6,27.4c0,0,2.5-5.7,4.6-1.2c1.6,3.6-1.1,7-3.3,6.8C50.6,32.8,51.6,27.4,51.6,27.4z"/>
		<path class="st1" d="M51.8,28.3c0,0,1.9-3.6,2.8-2.3c1,1.3,1,3.1,1,3.1s-0.7-1.9-2-0.7c0,0,1.8,3-1.2,2.4
			C52.3,30.8,51,29.9,51.8,28.3z"/>
	</g>
</g>
<path class="st8" d="M32.2,15.4c0,0,0.3,4.6-1.6,6.9c-1.9,2.3-2.1,6.8-2.1,6.8s-7.1-9,1-14.3C29.4,14.9,31,14.3,32.2,15.4z"/>
<path class="st8" d="M47.8,17.3c0,0,3.3,4.4,4,10.6c0,0,4.6-6.9,0.2-12.6C51.9,15.2,47.1,13.2,47.8,17.3z"/>
<g>
	<g>
		<path class="st9" d="M28.6,28.3c0,0-2.5-5.7-4.6-1.2c-1.6,3.6,1.1,7,3.3,6.8C29.6,33.6,28.6,28.3,28.6,28.3z"/>
		<path class="st1" d="M28.5,29.2c0,0-1.9-3.6-2.8-2.3c-1,1.3-1,3.1-1,3.1s0.7-1.9,2-0.7c0,0-1.8,3,1.2,2.4
			C27.9,31.6,29.2,30.8,28.5,29.2z"/>
	</g>
</g>
<g>
	<g>
		<path class="st10" d="M36.2,25.6c-1-0.2-2.1-0.2-3.1-0.2c-0.6,1-1.2,2.1-1.7,3.3c-0.3,0.8-0.7,1.7-0.8,2.6c1,0.9,2.2,1.2,3.5,1.2
			C34.7,30.1,35,27.5,36.2,25.6z"/>
		<path class="st10" d="M49.3,25.3c-1.1-0.1-2.1,0-3.1,0.1c-0.5,1.1-1,2.2-1.4,3.4c-0.3,0.8-0.5,1.7-0.6,2.6c1,0.8,2.3,0.9,3.6,0.8
			C48.2,30,48.3,27.4,49.3,25.3z"/>
	</g>
	<path class="st11" d="M51.9,30c1-3,0.7-4.3,0.7-4.4l-0.1-0.2l-0.2-0.1c-0.2-0.1-4.5-1.8-9.2,0.4c-0.5,0.2-1,0.5-1.4,0.8l0-0.1
		l-1.7,0.1l0-0.1l-0.2-0.1c-0.5-0.3-1-0.5-1.6-0.7c-4.8-1.8-9.1,0.2-9.3,0.2l-0.2,0.1l-0.1,0.2c0,0.1-0.2,1.4,1,4.4
		c0.4,1.1,1.3,1.8,2.4,2.3c1.4,0.5,2.9,0.4,3,0.4c3.4-0.4,4-2,4.4-3.1c0-0.1,0-0.1,0.1-0.2c0.3-0.8,0.4-1.4,0.5-1.9
		c0.3-0.1,0.8-0.2,1.5,0c0.1,0.6,0.3,1.3,0.7,2.1c0,0.1,0.1,0.1,0.1,0.2c0.5,1.1,1.2,2.7,4.6,2.8c0.1,0,1.5,0,2.9-0.6
		C50.8,31.9,51.5,31.1,51.9,30z M34.7,32.1c0,0-1.3,0.1-2.5-0.3c-0.9-0.3-1.5-0.9-1.9-1.7c-0.8-1.9-0.9-3.1-0.9-3.5
		c1-0.4,4.5-1.5,8.2-0.1c0.4,0.2,0.8,0.3,1.2,0.5c0,0.4-0.1,1.3-0.5,2.5c0,0.1,0,0.1-0.1,0.2C37.9,30.7,37.5,31.8,34.7,32.1z
		 M49.2,31.5C48,32.1,46.7,32,46.7,32c-2.8-0.1-3.3-1.2-3.7-2.2c0-0.1-0.1-0.1-0.1-0.2c-0.5-1.1-0.6-2.1-0.7-2.5
		c0.4-0.2,0.8-0.4,1.1-0.6c3.7-1.7,7.2-0.7,8.2-0.4c0,0.5,0,1.6-0.7,3.6C50.7,30.5,50.1,31.1,49.2,31.5z"/>
</g>
<path class="st12" d="M35,36c0,0,6.4,6.6,10.4-1C45.5,35,41.9,38.8,35,36z"/>
<g>
	<path class="st9" d="M69.3,107.1c-0.1-0.4-0.1-0.7-0.1-1.1l-4.1-0.6c-0.1,0.6-0.1,1.2-0.2,1.8c-0.8,0.5-2.1,1.8-2.1,3.5
		c0,1.6-2,3.1-2.2,3.6c1.3,0.9,2.2-0.4,3.1-1.8c0.4-0.7,0.7-0.8,0.9-0.7c0,0.3,0,0.6,0,0.6c0,0.1,0,0.1,0,0.2
		c-0.3,1.2-0.6,2.4-0.8,3.7c-0.1,0.6-0.2,1.2,0.1,1.8c0.1,0.1,0.2,0.1,0.3,0.1c0.8-0.4,1-1.4,1.2-2.2c0.1-0.5,0.3-1,0.4-1.4
		c0,0.9-0.2,1.8-0.3,2.7c-0.2,0.8-0.4,1.8-0.1,2.6c0.3,0.8,0.8,0.4,1.1-0.1c0,0.1,0,0.2,0,0.3c0,0.2,0.3,0.3,0.4,0.2
		c2.5-1.2,2.8-5.2,2.4-7.8c1.8,1.3,0.2,3.4,0.9,5c0,0.1,0.2,0.2,0.3,0.1c1.7-1.2,0.9-4.6,0.4-6.2C70.5,109.9,69.6,108.4,69.3,107.1z
		"/>
	<path class="st0" d="M71.3,108.6C72.6,64.1,57.4,52,57.4,52c-3.1,3.2-2.7,17.9-2.7,17.9c4.5,6.2,7.2,29.9,8.1,38.7H71.3z"/>
</g>
<g>
	<path class="st9" d="M36.3,86.3c-1.5,1.5-3.4,1.1-5.3,1.3c-1.3,0.1-3.1,0.1-3.8,0.8c-3-1.3-0.5,1.4-1.2,2c-0.7,0.6-0.9,1.6-0.6,2.4
		c0,0.1,0,0.1,0,0.2c0,0,0,0,0.1,0c0.2,0.3,0.5,0.6,0.8,0.9c0.1,0,0.1,0,0.2,0c2,1.9,3.4,4.3,6.3,4.9c1.4,0.3,3-0.2,2.5-1.5
		c0.7,0.1,1.6,0.3,2-0.5c0.4-0.8-0.3-1.4-1-1.9c0.7,0,1.5,0,1.7-0.7c0.2-0.7-0.1-1.2-0.7-1.6c0.9-0.2,1.7-0.6,1.2-1.4
		c-0.4-0.6-1.1-0.7-1.7-0.9c-1-0.2-1.9-0.5-2.8-0.9c1.6-0.3,2.9-0.9,2.7-3.1C36.9,86.2,36.5,86.1,36.3,86.3z"/>
	<path class="st0" d="M29.9,86.2c-4.5-1.8-11.4-4.8-12.2-6.6c-1.1-2.7,8.4-11.5,9.2-15.3c0.8-3.8-2.9-11.9-2.9-11.9
		C23.5,53.2,8.5,67.8,6.3,78.5c-1.9,8.7,10,14.9,19.3,18.2C27.3,93.3,28.6,89.7,29.9,86.2z"/>
</g>
</svg>
