 <svg
        xmlns="http://www.w3.org/2000/svg"
        x="0"
        y="0"
        enableBackground="new 0 0 622 841.9"
        version="1.1"
        viewBox="0 0 622 841.9"
        xmlSpace="preserve"
      >
        <path
          d="M380.8 822.2l-55.2-6.3c2.4-4.4 3.9-16.9 4.8-26.1 1-13.1.5-29.5.5-29.5s36.3-8.7 36.3 0 1.9 19.8 4.8 29.5c4 15 8.8 32.4 8.8 32.4z"
          className={styles.st0}
        ></path>
        <path
          d="M382.3 826.1v-1c0 2.9-1 1.9-2.4 6.3h-57.6c-1.5-4.4-1.9-3.4-2.4-6.3 0-.5 0 .5 0 0 0-13.5 14-24.2 31-24.2s31.4 11.6 31.4 25.2z"
          className={styles.st0}
        ></path>
        <path
          d="M330.5 791.3c1-13.1.5-31 .5-31s36.3-8.7 36.3 0 1.9 17.9 4.8 31h-41.6z"
          className={styles.st1}
        ></path>
        <path
          d="M382.3 824.6s-1 4.4-2.4 4.4h-57.6c-1.5 0-1.9-4.4-2.4-4.4h62.4z"
          className={styles.st2}
        ></path>
        <path
          d="M361.5 805.3c-4.4-5.8-14.5-3.9-19.4 0-1 .5 0 1.5 1 1.5 2.9-.5 5.3-1.9 8.7-2.4 3.4 0 5.8 1.9 9.2 1.9.5.4.9-.5.5-1zM359.5 811.6c-4.8-3.4-14-4.4-18.4.5-.5.5 0 1.9 1 1.5 2.9-1 6.3-1 8.7-1 2.9 0 5.3 1.9 8.2 1.5 1.5-.6 1.5-2 .5-2.5z"
          className={styles.st3}
        ></path>
        <path
          d="M287.9 825.6c-.5 3.4-1 5.8-1.5 7.7 0 0-87.6 3.9-93.9 1-1-.5-.5-1.5.5-2.4.5-1 .5-1.9 1-3.4 2.9-7.3 11.6-18.9 35.3-17.4 4.4-1.9 7.7-3.9 9.7-4.8 2.9-1.5 5.3-5.8 6.8-10.6 3.4-11.1 4.4-26.1 3.4-29.5l37.3.5s1.5 13.5 1.9 29c.5 10.1.5 21.7-.5 29.9z"
          className={styles.st0}
        ></path>
        <path
          d="M245.8 796.1c3.4-17.9 4.4-26.6 3.4-30l37.3.5s1.5 11.6 1.9 29h-42.6v.5z"
          className={styles.st1}
        ></path>
        <path
          d="M287.9 825.6c-.5 3.4-1 5.8-1.5 7.7 0 0-87.6 3.9-93.9 1-1-.5-.5-1.5.5-2.4.5-1 .5-1.9 1-3.4 15.5 0 70.2 0 93.9-2.9z"
          className={styles.st2}
        ></path>
        <path
          d="M238.6 813c-1.5-4.4-8.2-5.8-12.1-3.4-.5.5-.5 1 0 1 1.5 1 3.4.5 5.3 1s2.9 1.9 3.9 2.9c1.4.5 3.4 0 2.9-1.5zM251.2 807.7c-1-2.9-4.4-4.8-7.7-5.3-2.4 0-7.3.5-6.8 3.4 0 .5.5.5.5.5 1.5 0 2.9-1 4.4-1 1.9 0 3.4 1 4.8 2.4 1 1 1.5 2.4 3.4 2.4 1.4 0 1.8-1.9 1.4-2.4z"
          className={styles.st3}
        ></path>
        <path
          d="M226.5 227.1s82.7-15.5 161.6-1.9c0 0-17.4 150.5-23.7 182.4 0 0-62.4 15.5-116.1-1 0 0-22.8-150.4-21.8-179.5z"
          className={styles.st4}
        ></path>
        <path
          d="M330 217.5c0 14-10.6 25.2-24.2 25.2-13.5 0-24.2-11.1-24.2-25.2v-31.9c0-14 10.6-25.2 24.2-25.2 13.5 0 24.2 11.1 24.2 25.2v31.9z"
          className={styles.st5}
        ></path>
        <g>
          <path
            d="M309.2 262.5c0 1.9-1.5 3.4-3.4 3.4s-3.4-1.5-3.4-3.4 1.5-3.4 3.4-3.4c2-.5 3.4 1.4 3.4 3.4zM309.2 299.7c0 1.9-1.5 3.4-3.4 3.4s-3.4-1.5-3.4-3.4 1.5-3.4 3.4-3.4c2-.5 3.4 1 3.4 3.4zM308.7 373.7c0 1.9-1.5 3.4-3.4 3.4s-3.4-1.5-3.4-3.4 1.5-3.4 3.4-3.4c2 0 3.4 1.5 3.4 3.4zM309.2 336.5c0 1.9-1.5 3.4-3.4 3.4s-3.4-1.5-3.4-3.4 1.5-3.4 3.4-3.4 3.4 1.4 3.4 3.4z"
            className={styles.st6}
          ></path>
        </g>
        <g>
          <path
            d="M280.7 202l-19.8 20.8 16.4 43.5 28.1-23.7c-.1 0-21.8-22.7-24.7-40.6z"
            className={styles.st7}
          ></path>
          <path
            d="M330 202l19.8 20.8-16.4 43.5-28.1-23.7s21.8-22.7 24.7-40.6z"
            className={styles.st7}
          ></path>
        </g>
        <g>
          <path
            d="M375 782.5h-47.9l-16.9-290.3c-1.5 0-3.4 0-4.8-.5l-13.5 295.1H244c-1-119.5 6.3-381.7 5.3-384.6l102.6-1h13.5c1 8.7 1.9 11.1 2.4 17.4 9.1 85.8 7.2 328.6 7.2 363.9z"
            className={styles.st0}
          ></path>
          <path
            d="M366.8 424h-14.5c0-5.8-.5-11.1-1.5-16.9h13.5c1 4.9 2 10.7 2.5 16.9zM339.2 407.1l-59-.5c0 6.3.5 12.6.5 18.9l60-1c-2-5.3-2-11.6-1.5-17.4zM265.2 406.6h-16.9v19.8l18.9-.5c-2-5.7-2-13-2-19.3z"
            className={styles.st8}
          ></path>
          <path d="M294.7 397H321.3V423.6H294.7z" className={styles.st9}></path>
        </g>
        <g>
          <path
            d="M362.4 147.3c0 19.8-20.8 35.8-34.8 43.1-14 7.3-26.1 4.8-26.1 4.8-55.6-12.6-51.8-39.2-54.7-61-1.5-10.6-2.9-31 1.9-55.6.5-3.4 1.5-6.3 2.9-9.2 8.7-17.9 29-24.7 29-24.7 12.1-4.4 26.1-5.3 38.7-2.9 18.4 3.4 32.4 12.6 37.3 31.4 1.5 5.8 2.4 12.1 2.9 18.4 1.5 12.6 2.4 25.2 2.9 38.2v17.5z"
            className={styles.st10}
          ></path>
          <path
            d="M304.4 92.2s-4.4-3.9-3.9 10.6c0 14.5 1.9 29.5 1.9 29.5s-10.2-4.8-6.3 2.9c1.9 4.4 6.3 6.3 10.6 6.8 3.9 1 6.3-.5 8.7-3.4 1-1 6.8-7.7 4.4-9.2-1-1-5.8 1.5-7.3 1.9.1.5-1.4-42.5-8.1-39.1z"
            className={styles.st11}
          ></path>
          <path
            d="M320.8 82s25.2-4.8 32.9 13.5c0 0-28.1-8.2-33.4-4.4l.5-9.1zM290.8 84.4s-24.7-6.8-33.9 11.1c0 0 28.5-6.8 33.9-1.9v-9.2z"
            className={styles.st12}
          ></path>
          <path
            d="M262.8 113.4c.5 7.3 7.3 12.6 15.5 12.1s14-6.8 13.5-14c-.5-7.3-7.3-12.6-15.5-12.1-7.7.5-14 6.8-13.5 14z"
            className={styles.st6}
          ></path>
          <g ref={ref1}>
            <path
              d="M287 111.5c.5 6.3-3.4 12.1-8.2 12.1-4.8.5-9.2-4.4-9.7-11.1-.5-6.3 3.4-12.1 8.2-12.1 4.8 0 9.2 4.8 9.7 11.1z"
              className={styles.st13}
            ></path>
            <path
              d="M284.5 111.5c.5 4.4-2.4 8.2-5.8 8.7-3.4 0-6.8-3.4-6.8-7.7-.5-4.4 2.4-8.2 5.8-8.7 3.5 0 6.4 3.4 6.8 7.7z"
              className={styles.st12}
            ></path>
          </g>
          <path
            d="M284.1 103.8c0 1.5-1.5 2.4-3.4 2.4s-3.4-1-3.4-1.9c0-1.5 1.5-2.4 3.4-2.4s3.4.9 3.4 1.9zM320.8 112c.5 7.3 7.3 12.6 15.5 12.1s14-6.8 13.5-14c-.5-7.3-7.3-13.1-15.5-12.1-8.2.4-14 6.7-13.5 14z"
            className={styles.st6}
          ></path>
          <g ref={ref2}>
            <path
              d="M343.1 110.1c.5 6.3-3.4 12.1-8.2 12.1-4.8.5-9.2-4.4-9.7-11.1-.5-6.3 3.4-12.1 8.2-12.1s9.2 4.8 9.7 11.1z"
              className={styles.st13}
            ></path>
            <path
              d="M340.2 110.1c.5 4.4-2.4 8.2-5.8 8.7-3.4 0-6.8-3.4-6.8-7.7-.5-4.4 2.4-8.2 5.8-8.7 3.4-.1 6.3 3.3 6.8 7.7z"
              className={styles.st12}
            ></path>
          </g>
          <path
            d="M340.2 102.3c0 1.5-1.5 2.4-3.4 2.4s-3.4-1-3.4-1.9c0-1.5 1.5-2.4 3.4-2.4 1.4 0 3.4 1 3.4 1.9z"
            className={styles.st6}
          ></path>
          <path
            d="M380.8 33.1c-3.4 4.4-8.7 9.2-14.5 10.2 4.8-4.8 9.2-11.6 8.7-18.9 0-.5-.5-.5-.5-.5-1 .5-1.9 1.5-2.4 1.9-4.4 3.9-11.6 3.9-16.4 1.9-9.2-3.4-16.4-9.7-24.7-14.5-8.7-5.3-18.9-8.7-29.5-8.2-5.8 0-11.1 1.5-16.4 3.4-13.1 4.8-28.5 14-31.9 28.5-.5 1.9-.5 3.9-.5 6.3 0 1.5 1 5.3.5 6.3-.5.5.5 1 .5 1s.5 0 .5-.5v-.5c6.3-4.8 16.4 14.5 20.3 17.4 14.5 12.1 34.8 13.5 51.8 9.2 18.9-5.3 40.2-18.4 51.3-34.3 1.9-2.4 3.4-5.3 4.8-8.2-.6-.5-1.1-.9-1.6-.5z"
            className={styles.st14}
          ></path>
          <g>
            <path
              d="M360.5 106.2s12.1-27.6 22.3-5.8c7.7 17.4-5.3 33.9-16 32.9-11.1-1-6.3-27.1-6.3-27.1z"
              className={styles.st15}
            ></path>
            <path
              d="M361 110.5s9.2-17.4 13.5-11.1c4.8 6.3 4.8 15 4.8 15s-3.4-9.2-9.7-3.4c0 0 8.7 14.5-5.8 11.6.1 0-6.7-4.3-2.8-12.1z"
              className={styles.st5}
            ></path>
          </g>
          <path
            d="M266.6 48.1s1.5 22.3-7.7 33.4c-9.2 11.1-10.2 32.9-10.2 32.9s-34.3-43.5 4.8-69.2c-.4.5 7.3-2.9 13.1 2.9zM341.6 56.8s16 21.3 19.4 51.3c0 0 22.3-33.4 1-61-.1.1-23.3-9.6-20.4 9.7z"
            className={styles.st14}
          ></path>
          <g>
            <path
              d="M249.2 110.5s-12.1-27.6-22.3-5.8c-7.7 17.4 5.3 33.9 16 32.9 10.7-1.4 6.3-27.1 6.3-27.1z"
              className={styles.st15}
            ></path>
            <path
              d="M248.3 114.4s-9.2-17.4-13.5-11.1c-4.8 6.3-4.8 15-4.8 15s3.4-9.2 9.7-3.4c0 0-8.7 14.5 5.8 11.6.3 0 6.6-3.9 2.8-12.1z"
              className={styles.st5}
            ></path>
          </g>
          <g>
            <path
              d="M286 97.5c-4.8-1-10.2-1-15-1-2.9 4.8-5.8 10.2-8.2 16-1.5 3.9-3.4 8.2-3.9 12.6 4.8 4.4 10.6 5.8 16.9 5.8 2.4-11.6 4.4-24.2 10.2-33.4zM349.4 96c-5.3-.5-10.2 0-15 .5-2.4 5.3-4.8 10.6-6.8 16.4-1.5 3.9-2.4 8.2-2.9 12.6 4.8 3.9 11.1 4.4 17.4 3.9 1.9-10.6 1.9-23.2 7.3-33.4z"
              className={styles.st16}
            ></path>
            <path
              d="M361.9 118.8c4.8-14.5 3.4-20.8 3.4-21.3l-.5-1-1-.5c-1-.5-21.8-8.7-44.5 1.9-2.4 1-4.8 2.4-6.8 3.9v-.5l-8.2.5v-.5l-1-.5c-2.4-1.5-4.8-2.4-7.7-3.4-23.2-8.7-44 1-45 1l-1 .5-.5 1c0 .5-1 6.8 4.8 21.3 1.9 5.3 6.3 8.7 11.6 11.1 6.8 2.4 14 1.9 14.5 1.9 16.4-1.9 19.4-9.7 21.3-15 0-.5 0-.5.5-1 1.5-3.9 1.9-6.8 2.4-9.2 1.5-.5 3.9-1 7.3 0 .5 2.9 1.5 6.3 3.4 10.2 0 .5.5.5.5 1 2.4 5.3 5.8 13.1 22.3 13.5.5 0 7.3 0 14-2.9 4.4-2.8 8.3-6.7 10.2-12zm-83.2 10.1s-6.3.5-12.1-1.5c-4.4-1.5-7.3-4.4-9.2-8.2-3.9-9.2-4.4-15-4.4-16.9 4.8-1.9 21.8-7.3 39.7-.5 1.9 1 3.9 1.5 5.8 2.4 0 1.9-.5 6.3-2.4 12.1 0 .5 0 .5-.5 1-1.4 4.9-3.3 10.2-16.9 11.6zm70.2-2.9c-5.8 2.4-12.1 2.4-12.1 2.4-13.5-.5-16-5.8-17.9-10.6 0-.5-.5-.5-.5-1-2.4-5.3-2.9-10.2-3.4-12.1 1.9-1 3.9-1.9 5.3-2.9 17.9-8.2 34.8-3.4 39.7-1.9 0 2.4 0 7.7-3.4 17.4-.9 3.9-3.8 6.8-7.7 8.7z"
              className={styles.st17}
            ></path>
          </g>
          <path
            d="M282.9,156.1c13.8,2.7,30,3.9,50-0.5c0.8-0.2-8.5,9-14.5,12.3c-5.5,3-13.5,5.2-25.5-3.4
		C292.1,164.1,282,156,282.9,156.1z"
            className={styles.st18 + ' mouth'}
          ></path>
        </g>
        <g>
          <path
            d="M446.1 491.8c-.5-1.9-.5-3.4-.5-5.3l-19.8-2.9c-.5 2.9-.5 5.8-1 8.7-3.9 2.4-10.2 8.7-10.2 16.9 0 7.7-9.7 15-10.6 17.4 6.3 4.4 10.6-1.9 15-8.7 1.9-3.4 3.4-3.9 4.4-3.4v3.9c-1.5 5.8-2.9 11.6-3.9 17.9-.5 2.9-1 5.8.5 8.7.5.5 1 .5 1.5.5 3.9-1.9 4.8-6.8 5.8-10.6.5-2.4 1.5-4.8 1.9-6.8 0 4.4-1 8.7-1.5 13.1-1 3.9-1.9 8.7-.5 12.6 1.5 3.9 3.9 1.9 5.3-.5v1.5c0 1 1.5 1.5 1.9 1 12.1-5.8 13.5-25.2 11.6-37.7 8.7 6.3 1 16.4 4.4 24.2 0 .5 1 1 1.5.5 8.2-5.8 4.4-22.3 1.9-30-1.9-7.5-6.7-14.7-7.7-21z"
            className={styles.st15}
          ></path>
          <path
            d="M455.8 499c6.3-215.8-67.2-274.3-67.2-274.3-15 15.5-13.1 86.6-13.1 86.6 21.8 30 34.8 144.7 39.2 187.2h41.1v.5z"
            className={styles.st4 + ' l_hand'}
          ></path>
        </g>
        <g>
          <path
            d="M298.1 348.6L241 326.8c1-1.9 1.9-2.4 2.9-2.9 4.8-2.9 12.1-1.9 20.8.5 2.9 1 5.8 1.9 9.2 2.9 2.9 1 5.8 2.4 8.7 3.4 8.2 3.9 14 8.2 16 13.5-.5 1.5 0 2-.5 4.4z"
            className={styles.st19}
          ></path>
          <path
            d="M285.5 318.6c-2.4-1-3.9-3.9-3.4-6.3l-5.3-1.9c-1 1.9-3.9 3.4-6.8 2.4-.5 0-.5-.5-1-.5l-8.2 22.3 17.9 6.8 8.2-22.3c.1 0-.9-.5-1.4-.5zm-7.7-2.4c1.9 1 2.9 2.9 2.4 5.3-1 1.9-2.9 2.9-5.3 2.4-1.9-1-2.9-2.9-2.4-5.3.9-2.4 2.8-3.4 5.3-2.4z"
            className={styles.st19}
          ></path>
          <path
            d="M272.4 468.1c-1 1.9-2.9 2.9-4.8 2.4L182 438.1c-1.9-1-2.9-2.9-1.9-4.8l43.1-113.7c1-1.9 2.9-2.9 4.8-2.4l85.6 32.4c1.9 1 2.9 2.9 1.9 4.8l-43.1 113.7z"
            className={styles.st20}
          ></path>
        </g>
        <g>
          <path
            d="M286.5 391.1c-7.3 7.3-16.4 5.3-25.6 6.3-6.3.5-15 .5-18.4 3.9-14.5-6.3-2.4 6.8-5.8 9.7s-4.4 7.7-2.9 11.6v1h.5c1 1.5 2.4 2.9 3.9 4.4h1c9.7 9.2 16.4 20.8 30.5 23.7 6.8 1.5 14.5-1 12.1-7.3 3.4.5 7.7 1.5 9.7-2.4 1.9-3.9-1.5-6.8-4.8-9.2 3.4 0 7.3 0 8.2-3.4s-.5-5.8-3.4-7.7c4.4-1 8.2-2.9 5.8-6.8-1.9-2.9-5.3-3.4-8.2-4.4-4.8-1-9.2-2.4-13.5-4.4 7.7-1.5 14-4.4 13.1-15 .7-.4-1.3-.9-2.2 0z"
            className={styles.st15}
          ></path>
          <path
            d="M255.5 390.7c-21.8-8.7-55.2-23.2-59-31.9-5.3-13.1 40.6-55.6 44.5-74 3.9-18.4-14-57.6-14-57.6-2.4 3.9-74.5 74.5-85.6 126.3-9.2 42.1 48.4 72.1 93.4 88.1 8.1-16.6 14.4-34 20.7-50.9z"
            className={styles.st4}
          ></path>
        </g>
      </svg>